<svg xmlns="http://www.w3.org/2000/svg" version="1.1" xmlns:xlink="http://www.w3.org/1999/xlink" xmlns:svgjs="http://svgjs.dev/svgjs" width="100%" height="100%" viewBox="0 0 1000 600"><rect width="1000" height="600" x="0" y="0" fill="000000"/><g><rect width="333.3333333333333" height="333.3333333333333" rx="13.333333333333334" ry="13.333333333333334" y="448.09779435096783" fill="#66220155" transform="matrix(0.2935129264178717,0,0,0.29351292641787174,-139.19523405566085,119.55867569566028)" x="1097.1390380859377"/><path d="M979.0534553249951 646.689048889815L979.0534553249951 646.689048889815Q976.6342430989957 646.689048889815 975.1558356275518 646.2186465125374L975.1558356275518 646.2186465125374Q967.4277965722763 644.2698366638158 964.269380610555 640.1706159475392Q961.1109646488337 636.0713952312626 960.1701598942784 633.6521830052634L960.1701598942784 633.6521830052634Q956.7429425741127 622.9673290070998 962.5893721202776 611.6104716128254Q968.3686013268316 600.253614218551 977.575047853551 587.6871507112769L977.575047853551 587.6871507112769Q980.464662456828 583.7895310138335 983.1526760412717 579.2199079202794Q985.7734892861042 574.5830844871141 987.7222991348258 571.2230675065596L987.7222991348258 571.2230675065596Q988.1927015121034 570.7526651292819 989.2007066062698 569.2742576578379L989.2007066062698 569.2742576578379Q986.311092002993 570.2822627520043 982.1446709471053 572.1638722611149Q978.0454502308287 574.1126821098364 972.7366234015525 578.0103018072798L972.7366234015525 578.0103018072798Q964.0005792521106 583.3191286365559 954.3237303481135 591.7863714275534Q944.6468814441164 600.253614218551 934.4996301628415 609.4600607452705L934.4996301628415 609.4600607452705Q932.0804179368422 611.4088705939921 929.4596046920096 613.8280828199913Q926.771591107566 616.2472950459908 924.3523788815668 618.66650727199L924.3523788815668 618.66650727199Q919.9843568068459 622.4969266298222 913.9363262418476 622.2953256109889Q907.8882956768493 622.0265242525445 904.0578763190172 617.188099800546L904.0578763190172 617.188099800546Q899.6898542442963 612.8200777258251 900.1602566215738 606.7720471608268Q900.6306589988515 600.7240165958286 904.9986810735725 596.8935972379963L904.9986810735725 596.8935972379963Q907.4178932995717 594.4743850119971 910.1059068840154 592.0551727859978Q912.726720128848 589.6359605599985 915.1459323548472 587.6871507112769L915.1459323548472 587.6871507112769Q930.6692108050094 573.6422797325588 945.6548865382827 561.8150199610068Q960.6405622715561 549.9205598498436 975.1558356275518 543.6709282660121Q989.6711089835475 537.3540963425695 1003.2455775849879 541.2517160400128L1003.2455775849879 541.2517160400128Q1011.4440190175411 543.1333255491234 1015.07283735654 547.7701489822887Q1018.701655695539 552.3397720758429 1019.1720580728165 555.7669893960085L1019.1720580728165 555.7669893960085Q1023.5400801475375 566.3846430545609 1017.223248224095 578.211902826113Q1010.9736166402635 590.1063629372761 1001.2967677362662 604.1512339159942L1001.2967677362662 604.1512339159942Q1000.2887626420999 605.0920386705495 999.0791565291003 607.2424495381044Q997.8695504161007 609.4600607452705 996.4583432842677 611.4088705939921L996.4583432842677 611.4088705939921Q1003.7159799622656 608.452055651104 1015.3416387149844 604.1512339159942Q1026.900097128092 599.7832118412733 1043.3641803328094 593.4663799178307L1043.3641803328094 593.4663799178307Q1049.681012256252 591.5175700691091 1054.9898390855283 594.2055836535528Q1060.2986659148044 596.8935972379963 1062.2474757635262 602.6728264445503L1062.2474757635262 602.6728264445503Q1064.6666879895254 607.9816532738264 1061.9786744050818 613.559281461547Q1059.3578611602493 619.1369096492676 1054.049034330973 621.5561218752669L1054.049034330973 621.5561218752669Q1038.525755880811 626.8649487045432 1025.9592923735368 631.2329707792641Q1013.3928288662627 635.600992853985 1004.6567847168209 638.9610098345395L1004.6567847168209 638.9610098345395Q999.8183602648223 640.9098196832613 996.1895419258234 642.1194257962609Q992.5607235868245 643.3290319092605 989.6711089835475 644.2698366638158L989.6711089835475 644.2698366638158Q986.311092002993 645.2778417579821 983.8918797769936 645.949845154093Q981.4726675509944 646.689048889815 979.0534553249951 646.689048889815ZM1158.0751600489423 661.2043222458108L1158.0751600489423 661.2043222458108Q1152.2287305027774 661.2043222458108 1148.3983111449452 657.8443052652563L1148.3983111449452 657.8443052652563Q1140.6030717500585 651.5274733418137 1144.0302890702242 641.8506244378165L1144.0302890702242 641.8506244378165Q1144.0302890702242 641.3802220605389 1147.6591074092232 630.2249656850977Q1151.287925748222 619.1369096492676 1156.1263502002207 605.0920386705495L1156.1263502002207 605.0920386705495Q1158.54556242622 596.8935972379963 1160.4943722749415 590.8455666729982Q1162.375981784052 584.797536108 1163.854389255496 579.9591116560014L1163.854389255496 579.9591116560014Q1150.8175233709444 584.797536108 1131.9342279402279 591.7863714275534Q1113.050932509511 598.775206747107 1092.4876285885173 606.5704461419936Q1071.9243246675233 614.298485197269 1052.5706268595288 621.5561218752669L1052.5706268595288 621.5561218752669Q1047.2618000302527 623.5049317239885 1041.6841718425321 620.8169181395449Q1036.1065436548115 618.1289045551013 1033.6873314288123 612.3496753485474L1033.6873314288123 612.3496753485474Q1031.7385215800907 607.0408485192712 1034.4265351645342 601.4632203315506Q1037.114548748978 595.8855921438301 1042.8937779555317 593.4663799178307L1042.8937779555317 593.4663799178307Q1064.6666879895254 585.7383408625553 1087.918005494963 577.2710980715577Q1111.1021226607895 568.8038552805602 1130.9262228460614 561.2774172441179Q1150.8175233709444 553.818179547287 1163.3839868782186 548.9797550952883Q1175.9504503854926 544.1413306432897 1175.9504503854926 544.1413306432897L1175.9504503854926 544.1413306432897Q1178.369662611492 543.6709282660121 1180.7888748374912 543.4021269075677Q1183.2080870634904 543.1333255491234 1185.156896912212 544.1413306432897L1185.156896912212 544.1413306432897Q1191.9441312129322 545.082135397845 1194.8337458162093 551.8693696985653L1194.8337458162093 551.8693696985653Q1197.2529580422085 555.7669893960085 1196.9841566837642 561.8150199610068Q1196.782555664931 567.8630505260049 1194.3633434389317 578.9511065618351L1194.3633434389317 578.9511065618351Q1192.8849359674875 585.2679384852777 1190.7345250999326 592.7271761821087Q1188.5169138927668 600.253614218551 1185.156896912212 609.9304631225482L1185.156896912212 609.9304631225482Q1184.6864945349344 611.8792729712698 1184.1488918180457 613.2904801031027Q1183.678489440768 614.7688875745466 1183.2080870634904 616.7176974232683L1183.2080870634904 616.7176974232683Q1202.5617848714849 606.0328434251048 1230.6515268289209 594.4743850119971L1230.6515268289209 594.4743850119971Q1235.9603536581972 592.0551727859978 1241.5379818459178 594.2055836535528Q1247.0484096940272 596.3559945211077 1248.9972195427488 601.732021689995L1248.9972195427488 601.732021689995Q1251.8868341460256 607.0408485192712 1249.4676219200264 612.8200777258251Q1247.0484096940272 618.66650727199 1241.739582864751 621.0857194979892L1241.739582864751 621.0857194979892Q1219.9666728307575 630.7625684019864 1202.8305862299292 639.4314122118171Q1185.6272992894897 648.167456361259 1175.480048008215 653.4762831905352Q1165.3327967269402 658.7851100198116 1165.3327967269402 658.7851100198116L1165.3327967269402 658.7851100198116Q1162.375981784052 661.2043222458108 1158.0751600489423 661.2043222458108ZM1296.911061685457 689.7644665805246L1296.911061685457 689.7644665805246Q1294.4918494594576 689.7644665805246 1292.0726372334584 689.4956652220802Q1289.6534250074592 689.294064203247 1286.763810404182 688.8236618259693L1286.763810404182 688.8236618259693Q1280.9173808580172 686.8748519772477 1277.086961500185 680.558020053805L1277.086961500185 680.558020053805Q1275.1381516514634 676.7276006959728 1275.1381516514634 669.9403663952526Q1275.1381516514634 663.1531320945323 1279.5061737261842 647.6970539839815Q1283.8741958009052 632.1737755338193 1293.5510447049023 601.732021689995L1293.5510447049023 601.732021689995Q1282.866190706739 605.5624410478272 1269.0901210864652 610.8712678771034Q1255.3140514661914 616.2472950459908 1240.7987781101958 621.5561218752669L1240.7987781101958 621.5561218752669Q1235.4899512809195 623.5049317239885 1229.912323093199 620.8169181395449Q1224.3346949054783 618.1289045551013 1221.915482679479 612.3496753485474L1221.915482679479 612.3496753485474Q1219.9666728307575 607.0408485192712 1222.654686415201 601.4632203315506Q1225.2754996600336 595.8855921438301 1231.1219292061985 593.4663799178307L1231.1219292061985 593.4663799178307Q1251.8868341460256 585.7383408625553 1270.0309258410205 578.9511065618351Q1288.175017536015 572.1638722611149 1299.800676288734 567.8630505260049Q1311.4263350414526 563.495028451284 1311.4263350414526 563.495028451284L1311.4263350414526 563.495028451284Q1316.2647594934513 561.5462186025624 1320.632781568172 563.0246260740064L1320.632781568172 563.0246260740064Q1326.8824131520037 564.4358332058393 1329.8392280948917 570.2822627520043L1329.8392280948917 570.2822627520043Q1332.258440320891 574.5830844871141 1331.519236585169 578.0103018072798Q1330.780032849447 581.3703187878343 1329.8392280948917 585.2679384852777L1329.8392280948917 585.2679384852777Q1328.8312230007252 587.2167483339992 1328.3608206234476 589.3671592015542Q1327.8904182461702 591.5175700691091 1326.8824131520037 594.4743850119971L1326.8824131520037 594.4743850119971Q1323.5223961714491 602.6728264445503 1319.89357783245 614.5000862161023Q1316.2647594934513 626.3945463272655 1312.367139796008 638.4906074572618L1312.367139796008 638.4906074572618Q1309.9479275700087 645.2778417579821 1308.5367204381757 650.1162662099807Q1307.0583129667318 654.9546906619793 1306.1175082121765 658.7851100198116L1306.1175082121765 658.7851100198116Q1315.323954738896 656.8363001710898 1332.7288426981686 647.6970539839815L1332.7288426981686 647.6970539839815Q1347.714518431442 639.4314122118171 1364.9178053718813 628.5449571948204Q1382.0538919727096 617.6585021778236 1399.9963826488708 605.5624410478272L1399.9963826488708 605.5624410478272Q1403.8268020067032 603.143228821828 1407.92602272298 600.7240165958286Q1412.0924437788674 598.3048043698293 1415.452460759422 595.4151897665524L1415.452460759422 595.4151897665524Q1420.7612875886982 592.0551727859978 1426.8093181536963 593.2647788989975Q1432.8573487186948 594.4743850119971 1436.2845660388602 599.7832118412733L1436.2845660388602 599.7832118412733Q1439.644583019415 604.6216362932719 1438.4349769064152 610.4008654998258Q1437.2253707934155 616.2472950459908 1431.9165439641395 619.6073120265453L1431.9165439641395 619.6073120265453Q1428.0189242666959 622.4969266298222 1423.9197035504196 625.1849402142659Q1419.820482834143 627.8057534590985 1415.452460759422 630.7625684019864L1415.452460759422 630.7625684019864Q1397.039567705983 642.8586295319828 1379.6346797467102 653.9466855678129Q1362.2297917874378 665.1019419432541 1346.7737136768867 673.3003833758072L1346.7737136768867 673.3003833758072Q1315.323954738896 689.7644665805246 1296.911061685457 689.7644665805246ZM1534.9346645879423 661.2043222458108L1534.9346645879423 661.2043222458108Q1529.1554353813885 661.2043222458108 1525.2578156839452 657.8443052652563L1525.2578156839452 657.8443052652563Q1517.5297766286697 651.5274733418137 1520.9569939488354 641.8506244378165L1520.9569939488354 641.8506244378165Q1520.9569939488354 641.3802220605389 1524.5858122878342 630.2249656850977Q1528.214630626833 619.1369096492676 1533.053055078832 605.0920386705495L1533.053055078832 605.0920386705495Q1535.4722673048311 596.8935972379963 1537.3538768139417 590.8455666729982Q1539.3026866626633 584.797536108 1540.7810941341072 579.9591116560014L1540.7810941341072 579.9591116560014Q1527.6770279099444 584.797536108 1508.8609328188388 591.7863714275534Q1489.9776373881223 598.775206747107 1469.4143334671282 606.5704461419936Q1448.8510295461344 614.298485197269 1429.49733173814 621.5561218752669L1429.49733173814 621.5561218752669Q1424.1885049088637 623.5049317239885 1418.6108767211433 620.8169181395449Q1413.0332485334227 618.1289045551013 1410.6140363074235 612.3496753485474L1410.6140363074235 612.3496753485474Q1408.6652264587017 607.0408485192712 1411.3532400431454 601.4632203315506Q1413.974053287978 595.8855921438301 1419.820482834143 593.4663799178307L1419.820482834143 593.4663799178307Q1441.5933928681363 585.7383408625553 1464.777510033963 577.2710980715577Q1488.0288275394007 568.8038552805602 1507.8529277246723 561.2774172441179Q1527.6770279099444 553.818179547287 1540.3106917568296 548.9797550952883Q1552.8771552641037 544.1413306432897 1552.8771552641037 544.1413306432897L1552.8771552641037 544.1413306432897Q1555.296367490103 543.6709282660121 1557.7155797161024 543.4021269075677Q1560.1347919421014 543.1333255491234 1562.0836017908232 544.1413306432897L1562.0836017908232 544.1413306432897Q1568.8036357519325 545.082135397845 1571.7604506948203 551.8693696985653L1571.7604506948203 551.8693696985653Q1574.1796629208195 555.7669893960085 1573.9108615623752 561.8150199610068Q1573.642060203931 567.8630505260049 1571.2228479779317 578.9511065618351L1571.2228479779317 578.9511065618351Q1569.8116408460985 585.2679384852777 1567.5940296389326 592.7271761821087Q1565.443618771378 600.253614218551 1562.0836017908232 609.9304631225482L1562.0836017908232 609.9304631225482Q1561.5459990739344 611.8792729712698 1561.075596696657 613.2904801031027Q1560.605194319379 614.7688875745466 1560.1347919421014 616.7176974232683L1560.1347919421014 616.7176974232683Q1579.4884897500958 606.0328434251048 1607.5110313679209 594.4743850119971L1607.5110313679209 594.4743850119971Q1612.8870585368084 592.0551727859978 1618.3974863849178 594.2055836535528Q1623.9751145726384 596.3559945211077 1625.92392442136 601.732021689995L1625.92392442136 601.732021689995Q1628.8135390246368 607.0408485192712 1626.3943267986376 612.8200777258251Q1623.9751145726384 618.66650727199 1618.666287743362 621.0857194979892L1618.666287743362 621.0857194979892Q1596.8933777093685 630.7625684019864 1579.690090768929 639.4314122118171Q1562.5540041681008 648.167456361259 1552.406752886826 653.4762831905352Q1542.1923012659402 658.7851100198116 1542.1923012659402 658.7851100198116L1542.1923012659402 658.7851100198116Q1539.3026866626633 661.2043222458108 1534.9346645879423 661.2043222458108Z " fill="#c32215" transform="matrix(0.2935129264178717,0,0,0.29351292641787174,-139.19523405566085,119.55867569566028)"/><path d="M1568.191210177711 688.8006481394466L1568.191210177711 688.8006481394466Q1564.7490149939267 688.8006481394466 1561.237975906467 688.043365199014Q1557.795780722683 687.2860822585816 1554.2847416352233 686.8041749328518L1554.2847416352233 686.8041749328518Q1545.4038780610606 684.3257944005273 1541.8928389736009 676.4087454778241L1541.8928389736009 676.4087454778241Q1537.486829138357 666.495223348526 1542.1682145883035 652.3133791913358Q1546.8496000382497 638.2003789378214 1557.795780722683 615.8949541469008L1557.795780722683 615.8949541469008Q1559.7922539292776 611.9708516373869 1561.9952588468996 607.0140905727379Q1564.1982637645212 602.057329508089 1566.194736971116 597.5824757691696L1566.194736971116 597.5824757691696Q1559.7922539292776 600.0608563014941 1552.5636440433311 605.7749003065758Q1545.4038780610606 611.4201004079814 1537.968736464087 617.4095200277657L1537.968736464087 617.4095200277657Q1533.011975399438 620.8517152115497 1526.8160240686268 620.0944322711173Q1520.6200727378155 619.4059932343605 1516.627126324626 614.9311394954411L1516.627126324626 614.9311394954411Q1513.1849311408419 609.9743784307923 1513.9422140812744 603.984958811008Q1514.6306531180312 598.0643830948994 1519.1055068569506 593.5895293559802L1519.1055068569506 593.5895293559802Q1526.0587411281942 588.6327682913312 1533.7692583398705 582.7121925752226Q1541.410931647871 576.7227729554384 1549.3279805705743 572.7986704459247L1549.3279805705743 572.7986704459247Q1569.7057760585758 562.4032409908968 1586.5036885554418 567.3600020555459L1586.5036885554418 567.3600020555459Q1594.489581381821 568.8057240327352 1598.4136838913346 577.2735241848438L1598.4136838913346 577.2735241848438Q1602.406630304524 585.1905731075472 1598.2071521803075 597.1005684434399Q1593.9388301524152 608.941719875657 1584.0253080231173 629.3195153636584L1584.0253080231173 629.3195153636584Q1581.5469274907928 635.240091079767 1578.8620152474411 641.1606667958756Q1576.108259100414 647.1500864156598 1573.6298785680895 652.5887548060385L1573.6298785680895 652.5887548060385Q1573.1479712423597 654.5852280126333 1572.3906883019274 656.0309499898226Q1571.6334053614949 657.5455158706875 1571.151498035765 659.0600817515526L1571.151498035765 659.0600817515526Q1581.5469274907928 657.5455158706875 1601.6493473640915 648.389276681822Q1621.7517672373904 639.2330374929566 1655.898343460528 611.9708516373869L1655.898343460528 611.9708516373869Q1674.2796657419347 597.5824757691696 1689.1499489358816 583.9513828413849Q1704.0202321298286 570.3202899136002 1712.9010957039916 561.3705824357617Q1721.8508031818299 552.4897188615988 1721.8508031818299 552.4897188615988L1721.8508031818299 552.4897188615988Q1727.7713788979386 545.536484590355 1736.2391790500474 548.0148651226796L1736.2391790500474 548.0148651226796Q1740.163281559561 548.4967724484094 1742.6416620918856 551.2505285954365Q1745.12004262421 553.9354408387882 1746.634608505075 556.4138213711126L1746.634608505075 556.4138213711126Q1750.0768036888592 563.3670556423564 1747.3918914455076 572.5232948312218Q1744.6381352984802 581.6795340200874 1736.2391790500474 602.057329508089L1736.2391790500474 602.057329508089Q1733.2788911919931 608.4598125499272 1730.5251350449657 614.9311394954411Q1727.7713788979386 621.3336225372796 1725.292998365614 626.841134831334L1725.292998365614 626.841134831334Q1724.8110910398843 628.768764134253 1724.6045593288572 630.0079544004152Q1724.3291837141544 631.2471446665775 1723.847276388425 632.2798032217127L1723.847276388425 632.2798032217127Q1733.2788911919931 630.7652373408478 1743.8808523580478 624.0873786843067Q1754.5516574277783 617.4095200277657 1764.740555171779 608.941719875657Q1774.860609012104 600.542763627224 1781.8138432833478 594.6221879111154L1781.8138432833478 594.6221879111154Q1786.7706043479968 590.1473341721962 1792.760023967781 590.6292414979259Q1798.6805996838896 591.1111488236556 1803.155453422809 595.586002562575L1803.155453422809 595.586002562575Q1807.0795559323226 600.542763627224 1806.8730242212957 606.4633393433326Q1806.5976486065929 612.4527589631167 1801.640887541944 616.927612702036L1801.640887541944 616.927612702036Q1786.2886970222671 630.283330015118 1770.1792235621579 642.1933253510108Q1754.0697501020486 654.1033206869035 1737.9602766419393 659.7485207883094Q1721.8508031818299 665.4625647933908 1705.465954107018 661.538462283877L1705.465954107018 661.538462283877Q1697.548905184315 658.0274231964173 1694.1067100005307 651.624940154579L1694.1067100005307 651.624940154579Q1691.1464221424765 644.6717058833353 1692.3856124086387 636.2039057312265Q1693.624802674801 627.8049494827935 1698.0308125100444 615.4130468211711L1698.0308125100444 615.4130468211711Q1692.5921441196658 620.3698078858199 1686.8781001145842 624.8446616247393Q1681.2329000131783 629.3195153636584 1674.7615730676644 634.7581837540372L1674.7615730676644 634.7581837540372Q1606.330732814038 688.8006481394466 1568.191210177711 688.8006481394466ZM1966.2466612304963 655.5490426640929L1966.2466612304963 655.5490426640929Q1962.7356221430366 655.5490426640929 1959.7753342849824 654.5852280126333L1959.7753342849824 654.5852280126333Q1950.3437194814142 652.5887548060385 1946.4196169719005 643.1571400024702L1946.4196169719005 643.1571400024702Q1943.3904852101705 634.7581837540372 1948.1407145637925 624.3627542990095Q1952.8221000137387 613.898480940306 1960.739148936442 601.0246709529538L1960.739148936442 601.0246709529538Q1963.7682806981718 596.5498172140344 1966.4531929415234 591.8684317640882Q1969.2069490885508 587.187046314142 1971.2034222951454 583.1940999009524L1971.2034222951454 583.1940999009524Q1972.1672369466048 581.6795340200874 1972.6491442723348 580.4403437539252Q1973.1310515980645 579.2011534877629 1973.68180282747 578.2373388363035L1973.68180282747 578.2373388363035Q1958.811519633523 575.7589583039789 1939.191007085954 576.9981485701412Q1919.6393384420605 578.2373388363035 1895.3374404445453 584.7086657818174L1895.3374404445453 584.7086657818174Q1873.9958303050844 590.1473341721962 1849.4874005965419 598.8216660353319Q1824.9789708879996 607.4959978984677 1797.7167850324302 619.4059932343605L1797.7167850324302 619.4059932343605Q1792.2092727383756 621.3336225372796 1786.7706043479968 619.4059932343605Q1781.3319359576183 617.4095200277657 1778.8535554252937 611.9708516373869L1778.8535554252937 611.9708516373869Q1775.8932675672393 606.4633393433326 1778.3716480995638 600.2673880125212Q1780.8500286318883 594.0714366817099 1786.2886970222671 592.1438073787908L1786.2886970222671 592.1438073787908Q1814.0327902035665 579.7519047171684 1839.573878467244 570.5268216246272Q1865.1149667309214 561.3705824357617 1887.902298847572 555.9319140453829L1887.902298847572 555.9319140453829Q1948.8979975042248 540.5797235257061 1987.5194274662817 550.9751529807338L1987.5194274662817 550.9751529807338Q1998.9475154764448 553.9354408387882 2003.422369215364 564.8816215232214L2003.422369215364 564.8816215232214Q2007.8283790506075 575.7589583039789 2001.425896008769 589.114675617061Q1994.9545690632551 602.5392368338187 1986.0737054890924 616.927612702036L1986.0737054890924 616.927612702036Q1985.522954259687 617.8914273534955 1984.5591396082275 619.4059932343605Q1983.5953249567679 620.8517152115497 1982.562666401633 622.8481884181444L1982.562666401633 622.8481884181444Q1993.9907544117957 620.3698078858199 2016.2961792027163 612.9346662888465Q2038.601603993637 605.4995246918729 2077.773785185099 591.1111488236556L2077.773785185099 591.1111488236556Q2083.2124535754774 589.114675617061 2088.926497580559 591.8684317640882Q2094.571697681965 594.6221879111154 2096.5681708885595 600.542763627224L2096.5681708885595 600.542763627224Q2099.0465514208845 605.9814320176027 2096.5681708885595 611.6954760226843Q2094.0897903562354 617.4095200277657 2087.687307314397 619.8879005600902L2087.687307314397 619.8879005600902Q2064.8311312940714 627.8049494827935 2046.0367455906103 634.2762764283075Q2027.1735159834739 640.6787594701458 2012.3032327895266 645.153613209065L2012.3032327895266 645.153613209065Q1992.4761885309306 651.0741889251735 1982.080759075903 653.346037746471Q1971.6853296208753 655.5490426640929 1966.2466612304963 655.5490426640929ZM2258.1448128153825 655.5490426640929L2258.1448128153825 655.5490426640929Q2254.7026176315985 655.5490426640929 2251.742329773544 654.5852280126333L2251.742329773544 654.5852280126333Q2242.3107149699763 652.5887548060385 2238.317768556786 643.1571400024702L2238.317768556786 643.1571400024702Q2235.3574806987317 634.7581837540372 2240.1077100523544 624.3627542990095Q2244.7890955023004 613.898480940306 2252.706144425004 601.0246709529538L2252.706144425004 601.0246709529538Q2255.6664322830575 596.5498172140344 2258.4201884300855 591.8684317640882Q2261.1739445771127 587.187046314142 2263.1015738800315 583.1940999009524L2263.1015738800315 583.1940999009524Q2264.1342324351663 581.6795340200874 2264.6161397608967 580.4403437539252Q2265.098047086626 579.2011534877629 2265.5799544123556 578.2373388363035L2265.5799544123556 578.2373388363035Q2250.7096712184093 575.7589583039789 2231.158002574515 576.9981485701412Q2211.606333930622 578.2373388363035 2187.304435933107 584.7086657818174L2187.304435933107 584.7086657818174Q2165.9628257936456 590.1473341721962 2141.4543960851033 598.8216660353319Q2116.8771224728853 607.4959978984677 2089.614936617316 619.4059932343605L2089.614936617316 619.4059932343605Q2084.1762682269373 621.3336225372796 2078.7375998365587 619.4059932343605Q2073.2989314461793 617.4095200277657 2070.820550913855 611.9708516373869L2070.820550913855 611.9708516373869Q2067.8602630558007 606.4633393433326 2070.3386435881257 600.2673880125212Q2072.81702412045 594.0714366817099 2078.2556925108283 592.1438073787908L2078.2556925108283 592.1438073787908Q2105.999785692128 579.7519047171684 2131.540873955805 570.5268216246272Q2157.081962219483 561.3705824357617 2179.869294336134 555.9319140453829L2179.869294336134 555.9319140453829Q2240.796149089111 540.5797235257061 2279.486422954843 550.9751529807338L2279.486422954843 550.9751529807338Q2290.9145109650062 553.9354408387882 2295.32052080025 564.8816215232214L2295.32052080025 564.8816215232214Q2299.7953745391687 575.7589583039789 2293.392891497331 589.114675617061Q2286.921564551817 602.5392368338187 2277.9718570739788 616.927612702036L2277.9718570739788 616.927612702036Q2277.4899497482484 617.8914273534955 2276.5261350967894 619.4059932343605Q2275.4934765416538 620.8517152115497 2274.529661890195 622.8481884181444L2274.529661890195 622.8481884181444Q2285.957749900357 620.3698078858199 2308.2631746912775 612.9346662888465Q2330.568599482199 605.4995246918729 2369.671936769985 591.1111488236556L2369.671936769985 591.1111488236556Q2375.1794490640395 589.114675617061 2380.8246491654454 591.8684317640882Q2386.538693170527 594.6221879111154 2388.5351663771216 600.542763627224L2388.5351663771216 600.542763627224Q2391.0135469094457 605.9814320176027 2388.5351663771216 611.6954760226843Q2386.0567858447967 617.4095200277657 2379.5854588992834 619.8879005600902L2379.5854588992834 619.8879005600902Q2356.7981267826326 627.8049494827935 2338.003741079172 634.2762764283075Q2319.1405114720355 640.6787594701458 2304.2702282780883 645.153613209065L2304.2702282780883 645.153613209065Q2284.443184019492 651.0741889251735 2274.0477545644644 653.346037746471Q2263.652325109437 655.5490426640929 2258.1448128153825 655.5490426640929ZM2438.584684349341 689.764462790906L2438.584684349341 689.764462790906Q2436.106303817017 689.764462790906 2433.6279232846928 689.4890871762034Q2431.149542752368 689.2825554651763 2428.1892548943133 688.8006481394466L2428.1892548943133 688.8006481394466Q2422.2686791782053 686.8041749328518 2418.275732765016 680.3328479873378L2418.275732765016 680.3328479873378Q2416.2792595584206 676.4087454778241 2416.2792595584206 669.4555112065802Q2416.2792595584206 662.5022769353366 2420.75411329734 646.6681790899299Q2425.2289670362597 630.7652373408478 2435.142489165557 599.5789489757644L2435.142489165557 599.5789489757644Q2424.196308481124 603.5030514852783 2410.0833082276095 608.941719875657Q2395.970307974095 614.4492321697114 2381.1000247801485 619.8879005600902L2381.1000247801485 619.8879005600902Q2375.661356389769 621.884373766685 2369.9473123846874 619.1306176196578Q2364.2332683796067 616.3768614726305 2361.7548878472817 610.456285756522L2361.7548878472817 610.456285756522Q2359.758414640687 605.0176173661432 2362.5121707877142 599.3035733610617Q2365.2659269347414 593.5895293559802 2371.1865026508503 591.1111488236556L2371.1865026508503 591.1111488236556Q2392.528112790311 583.1940999009524 2411.115966782745 576.2408656297087Q2429.7038207751784 569.287631358465 2441.5449722073954 564.8816215232214Q2453.454967543288 560.4067677843021 2453.454967543288 560.4067677843021L2453.454967543288 560.4067677843021Q2458.411728607937 558.4102945777074 2462.886582346857 559.9248604585723L2462.886582346857 559.9248604585723Q2469.357909292371 561.3705824357617 2472.3181971504246 567.3600020555459L2472.3181971504246 567.3600020555459Q2474.7965776827496 571.7660118907895 2474.039294742317 575.2770509782491Q2473.2820118018844 578.7192461620332 2472.3181971504246 582.7121925752226L2472.3181971504246 582.7121925752226Q2471.28553859529 584.7086657818174 2470.8036312695604 586.9116706994391Q2470.32172394383 589.114675617061 2469.357909292371 592.1438073787908L2469.357909292371 592.1438073787908Q2465.8468702049113 600.542763627224 2462.1292994064243 612.6592906741437Q2458.411728607937 624.8446616247393 2454.487626098424 637.2365642863617L2454.487626098424 637.2365642863617Q2452.009245566099 644.1897985576055 2450.4946796852337 649.1465596222545Q2448.9801138043695 654.1033206869035 2448.0162991529096 658.0274231964173L2448.0162991529096 658.0274231964173Q2457.4479139564783 656.0309499898226 2475.278485008479 646.6681790899299L2475.278485008479 646.6681790899299Q2490.6306755281557 638.2003789378214 2508.25471486913 627.047666542361Q2525.8099103064287 615.8949541469008 2544.1912325878357 603.5030514852783L2544.1912325878357 603.5030514852783Q2548.115335097349 601.0246709529538 2552.3836571252414 598.5462904206292Q2556.583135249458 596.0679098883047 2560.025330433242 593.1076220302505L2560.025330433242 593.1076220302505Q2565.4639988236213 589.6654268464664 2571.6599501544324 590.9046171126287Q2577.8559014852435 592.1438073787908 2581.3669405727032 597.5824757691696L2581.3669405727032 597.5824757691696Q2584.809135756487 602.5392368338187 2583.569945490325 608.4598125499272Q2582.330755224162 614.4492321697114 2576.8920868337837 617.8914273534955L2576.8920868337837 617.8914273534955Q2572.8991404205944 620.8517152115497 2568.699662296378 623.605471358577Q2564.5001841721614 626.2903836019286 2560.025330433242 629.3195153636584L2560.025330433242 629.3195153636584Q2541.230944729781 641.711418025281 2523.3315297741046 653.0706621317684Q2505.500958722103 664.4987501419313 2489.666860876697 672.8977063903644L2489.666860876697 672.8977063903644Q2457.4479139564783 689.764462790906 2438.584684349341 689.764462790906ZM2682.4986350722784 660.5058037287417L2682.4986350722784 660.5058037287417Q2676.5092154524937 660.5058037287417 2672.5851129429802 657.0636085449578L2672.5851129429802 657.0636085449578Q2664.599220116601 650.5922815994438 2668.1102592040606 640.6787594701458L2668.1102592040606 640.6787594701458Q2668.1102592040606 640.196852144416 2671.8278300025477 628.768764134253Q2675.5454008010347 617.4095200277657 2680.502161865684 603.0211441595484L2680.502161865684 603.0211441595484Q2682.980542398008 594.6221879111154 2684.9770156046025 588.4262365803041Q2686.9046449075213 582.2302852494929 2688.4192107883864 577.2735241848438L2688.4192107883864 577.2735241848438Q2675.0634934753043 582.2302852494929 2655.7183565424384 589.3900512317637Q2636.3732196095716 596.5498172140344 2615.306985084814 604.5357100404135Q2594.240750560056 612.4527589631167 2574.4137063014596 619.8879005600902L2574.4137063014596 619.8879005600902Q2568.975037911081 621.884373766685 2563.2609939059994 619.1306176196578Q2557.5469499009178 616.3768614726305 2555.0685693685928 610.456285756522L2555.0685693685928 610.456285756522Q2553.072096161998 605.0176173661432 2555.8258523090253 599.3035733610617Q2558.5796084560525 593.5895293559802 2564.5001841721614 591.1111488236556L2564.5001841721614 591.1111488236556Q2586.805608963082 583.1940999009524 2610.6255996348673 574.5197680378167Q2634.376746402977 565.8454361746809 2654.6856979873037 558.1349189630047Q2675.0634934753043 550.4932456550041 2687.937303462657 545.536484590355Q2700.8111134500086 540.5797235257061 2700.8111134500086 540.5797235257061L2700.8111134500086 540.5797235257061Q2703.2894939823336 540.0978161999764 2705.7678745146577 539.8224405852736Q2708.2462550469827 539.5470649705709 2710.2427282535773 540.5797235257061L2710.2427282535773 540.5797235257061Q2717.195962524821 541.5435381771656 2720.1562503828754 548.4967724484094L2720.1562503828754 548.4967724484094Q2722.6346309151995 552.4897188615988 2722.3592553004974 558.68567019241Q2722.15272358947 564.8816215232214 2719.674343057146 576.2408656297087L2719.674343057146 576.2408656297087Q2718.159777176281 582.7121925752226 2715.956772258659 590.3538658832232Q2713.6849234373612 598.0643830948994 2710.2427282535773 607.9779052241975L2710.2427282535773 607.9779052241975Q2709.760820927848 609.9743784307923 2709.2100696984417 611.4201004079814Q2708.728162372712 612.9346662888465 2708.2462550469827 614.9311394954411L2708.2462550469827 614.9311394954411Q2728.073299305579 603.984958811008 2756.8500510420135 592.1438073787908L2756.8500510420135 592.1438073787908Q2762.288719432392 589.6654268464664 2768.0027634374737 591.8684317640882Q2773.6479635388796 594.0714366817099 2775.644436745474 599.5789489757644L2775.644436745474 599.5789489757644Q2778.6047246035287 605.0176173661432 2776.1263440712037 610.9381930822517Q2773.6479635388796 616.927612702036 2768.2092951485 619.4059932343605L2768.2092951485 619.4059932343605Q2745.9038703575798 629.3195153636584 2728.348674920281 638.2003789378214Q2710.724635579307 647.1500864156598 2700.329206124279 652.5887548060385Q2689.9337766692515 658.0274231964173 2689.9337766692515 658.0274231964173L2689.9337766692515 658.0274231964173Q2686.9046449075213 660.5058037287417 2682.4986350722784 660.5058037287417ZM2936.2572640208373 655.5490426640929L2936.2572640208373 655.5490426640929Q2932.8150688370533 655.5490426640929 2929.785937075323 654.5852280126333L2929.785937075323 654.5852280126333Q2920.42316617543 652.5887548060385 2916.430219762241 643.1571400024702L2916.430219762241 643.1571400024702Q2913.4699319041865 634.7581837540372 2918.1513173541334 624.3627542990095Q2922.901546707755 613.898480940306 2930.8185956304587 601.0246709529538L2930.8185956304587 601.0246709529538Q2933.7788834885123 596.5498172140344 2936.5326396355395 591.8684317640882Q2939.2175518788918 587.187046314142 2941.2140250854864 583.1940999009524L2941.2140250854864 583.1940999009524Q2942.1778397369453 581.6795340200874 2942.7285909663515 580.4403437539252Q2943.210498292081 579.2011534877629 2943.6924056178104 578.2373388363035L2943.6924056178104 578.2373388363035Q2928.822122423863 575.7589583039789 2909.27045377997 576.9981485701412Q2889.649941232401 578.2373388363035 2865.348043234886 584.7086657818174L2865.348043234886 584.7086657818174Q2844.0752769991004 590.1473341721962 2819.4980033868824 598.8216660353319Q2794.98957367834 607.4959978984677 2767.7273878227707 619.4059932343605L2767.7273878227707 619.4059932343605Q2762.288719432392 621.3336225372796 2756.8500510420135 619.4059932343605Q2751.342538747959 617.4095200277657 2748.8641582156342 611.9708516373869L2748.8641582156342 611.9708516373869Q2745.9038703575798 606.4633393433326 2748.3822508899048 600.2673880125212Q2750.860631422229 594.0714366817099 2756.2992998126074 592.1438073787908L2756.2992998126074 592.1438073787908Q2784.112236897583 579.7519047171684 2809.584481257585 570.5268216246272Q2835.125569521262 561.3705824357617 2857.912901637912 555.9319140453829L2857.912901637912 555.9319140453829Q2918.908600294566 540.5797235257061 2957.598874160298 550.9751529807338L2957.598874160298 550.9751529807338Q2968.9581182667853 553.9354408387882 2973.432972005705 564.8816215232214L2973.432972005705 564.8816215232214Q2977.9078257446236 575.7589583039789 2971.4364987991103 589.114675617061Q2965.034015757272 602.5392368338187 2956.0843082794327 616.927612702036L2956.0843082794327 616.927612702036Q2955.602400953703 617.8914273534955 2954.5697423985685 619.4059932343605Q2953.6059277471086 620.8517152115497 2952.6421130956487 622.8481884181444L2952.6421130956487 622.8481884181444Q2964.001357202136 620.3698078858199 2986.3067819930566 612.9346662888465Q3008.612206783978 605.4995246918729 3047.78438797544 591.1111488236556L3047.78438797544 591.1111488236556Q3053.2230563658186 589.114675617061 3058.9371003709 591.8684317640882Q3064.651144375982 594.6221879111154 3066.6476175825765 600.542763627224L3066.6476175825765 600.542763627224Q3069.1259981149005 605.9814320176027 3066.6476175825765 611.6954760226843Q3064.1692370502515 617.4095200277657 3057.697910104738 619.8879005600902L3057.697910104738 619.8879005600902Q3034.9105779880874 627.8049494827935 3016.047348380951 634.2762764283075Q2997.2529626774904 640.6787594701458 2982.382679483543 645.153613209065L2982.382679483543 645.153613209065Q2962.555635224947 651.0741889251735 2952.0913618662435 653.346037746471Q2941.695932411216 655.5490426640929 2936.2572640208373 655.5490426640929ZM3116.6971355547958 689.764462790906L3116.6971355547958 689.764462790906Q3114.2187550224717 689.764462790906 3111.7403744901467 689.4890871762034Q3109.2619939578226 689.2825554651763 3106.301706099768 688.8006481394466L3106.301706099768 688.8006481394466Q3100.3122864799843 686.8041749328518 3096.38818397047 680.3328479873378L3096.38818397047 680.3328479873378Q3094.3917107638754 676.4087454778241 3094.3917107638754 669.4555112065802Q3094.3917107638754 662.5022769353366 3098.866564502795 646.6681790899299Q3103.272574338039 630.7652373408478 3113.186096467336 599.5789489757644L3113.186096467336 599.5789489757644Q3102.308759686579 603.5030514852783 3088.1957594330643 608.941719875657Q3074.0827591795496 614.4492321697114 3059.2124759856024 619.8879005600902L3059.2124759856024 619.8879005600902Q3053.704963691548 621.884373766685 3048.059763590142 619.1306176196578Q3042.3457195850606 616.3768614726305 3039.8673390527365 610.456285756522L3039.8673390527365 610.456285756522Q3037.870865846142 605.0176173661432 3040.624621993169 599.3035733610617Q3043.3095342365204 593.5895293559802 3049.298953856305 591.1111488236556L3049.298953856305 591.1111488236556Q3070.57172009209 583.1940999009524 3089.159574084524 576.2408656297087Q3107.7474280769575 569.287631358465 3119.65742341285 564.8816215232214Q3131.567418748743 560.4067677843021 3131.567418748743 560.4067677843021L3131.567418748743 560.4067677843021Q3136.524179813392 558.4102945777074 3140.9990335523116 559.9248604585723L3140.9990335523116 559.9248604585723Q3147.40151659415 561.3705824357617 3150.3618044522036 567.3600020555459L3150.3618044522036 567.3600020555459Q3152.8401849845286 571.7660118907895 3152.151745947772 575.2770509782491Q3151.3944630073393 578.7192461620332 3150.3618044522036 582.7121925752226L3150.3618044522036 582.7121925752226Q3149.3979898007447 584.7086657818174 3148.9160824750143 586.9116706994391Q3148.434175149285 589.114675617061 3147.40151659415 592.1438073787908L3147.40151659415 592.1438073787908Q3143.959321410365 600.542763627224 3140.241750611879 612.6592906741437Q3136.524179813392 624.8446616247393 3132.531233400203 637.2365642863617L3132.531233400203 637.2365642863617Q3130.052852867878 644.1897985576055 3128.6071308906885 649.1465596222545Q3127.0925650098234 654.1033206869035 3126.1287503583644 658.0274231964173L3126.1287503583644 658.0274231964173Q3135.4915212582564 656.0309499898226 3153.390936213934 646.6681790899299L3153.390936213934 646.6681790899299Q3168.7431267336106 638.2003789378214 3186.298322170909 627.047666542361Q3203.9223615118835 615.8949541469008 3222.2348398896147 603.5030514852783L3222.2348398896147 603.5030514852783Q3226.227786302804 601.0246709529538 3230.4272644270204 598.5462904206292Q3234.626742551237 596.0679098883047 3238.1377816386967 593.1076220302505L3238.1377816386967 593.1076220302505Q3243.576450029075 589.6654268464664 3249.772401359887 590.9046171126287Q3255.9683526906983 592.1438073787908 3259.4105478744823 597.5824757691696L3259.4105478744823 597.5824757691696Q3262.921586961942 602.5392368338187 3261.682396695779 608.4598125499272Q3260.443206429617 614.4492321697114 3255.0045380392385 617.8914273534955L3255.0045380392385 617.8914273534955Q3251.0115916260493 620.8517152115497 3246.8121135018328 623.605471358577Q3242.6126353776162 626.2903836019286 3238.1377816386967 629.3195153636584L3238.1377816386967 629.3195153636584Q3219.2745520315602 641.711418025281 3201.4439809795595 653.0706621317684Q3183.6134099275578 664.4987501419313 3167.710468178475 672.8977063903644L3167.710468178475 672.8977063903644Q3135.4915212582564 689.764462790906 3116.6971355547958 689.764462790906ZM3360.5422423740574 660.5058037287417L3360.5422423740574 660.5058037287417Q3354.6216666579485 660.5058037287417 3350.6287202447593 657.0636085449578L3350.6287202447593 657.0636085449578Q3342.7116713220557 650.5922815994438 3346.1538665058397 640.6787594701458L3346.1538665058397 640.6787594701458Q3346.1538665058397 640.196852144416 3349.8714373043267 628.768764134253Q3353.5890081028138 617.4095200277657 3358.545769167462 603.0211441595484L3358.545769167462 603.0211441595484Q3361.024149699787 594.6221879111154 3363.0206229063815 588.4262365803041Q3365.017096112976 582.2302852494929 3366.531661993841 577.2735241848438L3366.531661993841 577.2735241848438Q3353.1071007770834 582.2302852494929 3333.7619638442175 589.3900512317637Q3314.4856708150264 596.5498172140344 3293.419436290268 604.5357100404135Q3272.3532017655098 612.4527589631167 3252.5261575069144 619.8879005600902L3252.5261575069144 619.8879005600902Q3247.01864521286 621.884373766685 3241.3734451114533 619.1306176196578Q3235.6594011063726 616.3768614726305 3233.1810205740476 610.456285756522L3233.1810205740476 610.456285756522Q3231.184547367453 605.0176173661432 3233.93830351448 599.3035733610617Q3236.6232157578315 593.5895293559802 3242.6126353776162 591.1111488236556L3242.6126353776162 591.1111488236556Q3264.9180601685366 583.1940999009524 3288.6692069366463 574.5197680378167Q3312.489197608432 565.8454361746809 3332.7981491927576 558.1349189630047Q3353.1071007770834 550.4932456550041 3365.980910764436 545.536484590355Q3378.9235646554635 540.5797235257061 3378.9235646554635 540.5797235257061L3378.9235646554635 540.5797235257061Q3381.4019451877884 540.0978161999764 3383.8803257201125 539.8224405852736Q3386.3587062524375 539.5470649705709 3388.2863355553563 540.5797235257061L3388.2863355553563 540.5797235257061Q3395.2395698266 541.5435381771656 3398.1998576846545 548.4967724484094L3398.1998576846545 548.4967724484094Q3400.6782382169786 552.4897188615988 3400.471706505952 558.68567019241Q3400.196330891249 564.8816215232214 3397.717950358924 576.2408656297087L3397.717950358924 576.2408656297087Q3396.2722283817357 582.7121925752226 3394.000379560438 590.3538658832232Q3391.797374642816 598.0643830948994 3388.2863355553563 607.9779052241975L3388.2863355553563 607.9779052241975Q3387.804428229626 609.9743784307923 3387.3225209038965 611.4201004079814Q3386.840613578167 612.9346662888465 3386.3587062524375 614.9311394954411L3386.3587062524375 614.9311394954411Q3406.185750511033 603.984958811008 3434.8936583437926 592.1438073787908L3434.8936583437926 592.1438073787908Q3440.332326734171 589.6654268464664 3446.046370739252 591.8684317640882Q3451.7604147443344 594.0714366817099 3453.756887950928 599.5789489757644L3453.756887950928 599.5789489757644Q3456.7171758089826 605.0176173661432 3454.2387952766585 610.9381930822517Q3451.7604147443344 616.927612702036 3446.321746353955 619.4059932343605L3446.321746353955 619.4059932343605Q3424.0163215630346 629.3195153636584 3406.39228222206 638.2003789378214Q3388.8370867847625 647.1500864156598 3378.372813426058 652.5887548060385Q3367.9773839710306 658.0274231964173 3367.9773839710306 658.0274231964173L3367.9773839710306 658.0274231964173Q3365.017096112976 660.5058037287417 3360.5422423740574 660.5058037287417Z " fill="#1dc3c3" transform="matrix(0.2935129264178717,0,0,0.29351292641787174,-139.19523405566085,119.55867569566028)"/></g></svg>